<?xml version="1.0" encoding="iso-8859-1"?>
<!-- Generator: Adobe Illustrator 19.0.0, SVG Export Plug-In . SVG Version: 6.00 Build 0)  -->
<svg version="1.1" id="Layer_1" xmlns="http://www.w3.org/2000/svg" xmlns:xlink="http://www.w3.org/1999/xlink" x="0px" y="0px"
	 viewBox="0 0 511.987 511.987" style="enable-background:new 0 0 511.987 511.987;" xml:space="preserve">
<path style="fill:#5D9CEC;" d="M501.314,511.981H10.673c-5.891,0-10.671-4.75-10.671-10.656V223.998
	c0-5.891,4.781-10.664,10.671-10.664h490.641c5.891,0,10.672,4.773,10.672,10.664v277.327
	C511.986,507.231,507.205,511.981,501.314,511.981z"/>
<path style="fill:#4A89DC;" d="M508.861,216.459l-42.67-42.671c-2-2-4.703-3.124-7.531-3.124H53.328
	c-2.828,0-5.531,1.124-7.531,3.124L3.126,216.459c-3.047,3.047-3.968,7.633-2.312,11.625c1.656,3.984,5.547,6.578,9.859,6.578
	h490.641c4.312,0,8.203-2.594,9.859-6.578C512.83,224.092,511.908,219.506,508.861,216.459z"/>
<path style="fill:#E6E9ED;" d="M309.32,319.987H202.667c-5.89,0-10.671,4.781-10.671,10.688v181.307h127.996V330.675
	C319.992,324.768,315.211,319.987,309.32,319.987z"/>
<rect x="53.324" y="330.673" style="fill:#434A54;" width="106.67" height="85.31"/>
<path style="fill:#CCD1D9;" d="M85.327,426.672c-5.89,0-10.656-4.781-10.656-10.688v-85.31c0-5.906,4.766-10.688,10.656-10.688
	c5.891,0,10.672,4.781,10.672,10.688v85.31C95.999,421.89,91.218,426.672,85.327,426.672z"/>
<rect x="351.994" y="330.673" style="fill:#434A54;" width="106.67" height="85.31"/>
<g>
	<path style="fill:#CCD1D9;" d="M127.998,426.672c-5.891,0-10.671-4.781-10.671-10.688v-85.31c0-5.906,4.781-10.688,10.671-10.688
		s10.671,4.781,10.671,10.688v85.31C138.669,421.89,133.889,426.672,127.998,426.672z"/>
	<path style="fill:#CCD1D9;" d="M383.99,426.672c-5.891,0-10.672-4.781-10.672-10.688v-85.31c0-5.906,4.781-10.688,10.672-10.688
		s10.672,4.781,10.672,10.688v85.31C394.662,421.89,389.881,426.672,383.99,426.672z"/>
	<path style="fill:#CCD1D9;" d="M426.66,426.672c-5.89,0-10.671-4.781-10.671-10.688v-85.31c0-5.906,4.781-10.688,10.671-10.688
		c5.891,0,10.656,4.781,10.656,10.688v85.31C437.316,421.89,432.551,426.672,426.66,426.672z"/>
</g>
<g>
	<path style="fill:#4A89DC;" d="M159.997,426.672H53.328c-5.89,0-10.656-4.781-10.656-10.688v-85.31
		c0-5.906,4.766-10.688,10.656-10.688h106.669c5.891,0,10.671,4.781,10.671,10.688v85.31
		C170.668,421.89,165.888,426.672,159.997,426.672z M64,405.329h85.326V341.33H64V405.329z"/>
	<path style="fill:#4A89DC;" d="M458.66,426.672H351.991c-5.891,0-10.672-4.781-10.672-10.688v-85.31
		c0-5.906,4.781-10.688,10.672-10.688H458.66c5.891,0,10.656,4.781,10.656,10.688v85.31
		C469.316,421.89,464.551,426.672,458.66,426.672z M362.662,405.329h85.326V341.33h-85.326V405.329z"/>
	<path style="fill:#4A89DC;" d="M458.66,277.332H53.328c-5.89,0-10.656-4.781-10.656-10.671c0-5.891,4.766-10.672,10.656-10.672
		H458.66c5.891,0,10.656,4.781,10.656,10.672C469.316,272.551,464.551,277.332,458.66,277.332z"/>
</g>
<path style="fill:#434A54;" d="M234.667,415.984c0,5.906-4.781,10.688-10.672,10.688c-5.89,0-10.671-4.781-10.671-10.688
	c0-5.874,4.781-10.655,10.671-10.655C229.886,405.329,234.667,410.11,234.667,415.984z"/>
<path style="fill:#E6E9ED;" d="M425.832,234.662c0-4.625-2.953-8.57-7.077-10.047l-159.214-63.85c-2.547-1.023-5.391-1.023-7.937,0
	L92.03,224.764c-4.109,1.648-6.703,5.617-6.688,9.898L425.832,234.662L425.832,234.662z"/>
<path style="fill:#FFCE54;" d="M255.572,170.664c-47.045,0-85.326-38.28-85.326-85.326c0-47.054,38.28-85.333,85.326-85.333
	c47.045,0,85.325,38.279,85.325,85.333C340.897,132.384,302.617,170.664,255.572,170.664z"/>
<path style="fill:#F6BB42;" d="M314.664,71.142c-1.25-3.858-4.594-6.671-8.609-7.257l-27.983-4.062l-12.515-25.358
	c-1.797-3.641-5.5-5.945-9.562-5.945c-4.062,0-7.765,2.305-9.562,5.945l-12.516,25.358l-27.984,4.062
	c-4.015,0.586-7.359,3.398-8.609,7.257c-1.25,3.867-0.203,8.102,2.703,10.938l20.249,19.734l-4.781,27.866
	c-0.688,4,0.953,8.046,4.234,10.429c1.859,1.352,4.062,2.039,6.281,2.039c1.688,0,3.391-0.406,4.953-1.227l25.031-13.155
	l25.03,13.155c1.562,0.82,3.266,1.227,4.953,1.227c0.016,0,0.031,0,0.031,0c5.89-0.008,10.655-4.781,10.655-10.663
	c0-0.812-0.094-1.609-0.266-2.367l-4.688-27.304l20.25-19.734C314.867,79.244,315.914,75.01,314.664,71.142z"/>
<g>
</g>
<g>
</g>
<g>
</g>
<g>
</g>
<g>
</g>
<g>
</g>
<g>
</g>
<g>
</g>
<g>
</g>
<g>
</g>
<g>
</g>
<g>
</g>
<g>
</g>
<g>
</g>
<g>
</g>
</svg>
