<svg width="1150" height="756" viewBox="0 0 1150 756" fill="none" xmlns="http://www.w3.org/2000/svg">
<g clip-path="url(#clip0)">
<path opacity="0.1" d="M1065.62 619.94C1062.03 623.093 1058.37 626.157 1054.62 629.13C1053.99 629.64 1053.34 630.13 1052.7 630.65C1039.34 641.016 1025.31 650.493 1010.7 659.02L1007.97 660.61C1007.31 661.01 1006.66 661.38 1005.97 661.75C990.71 670.56 974.88 678.67 958.86 686.35L958.69 686.44L957.48 687.01C944.56 693.203 931.447 699.13 918.14 704.79L917.82 704.91C911.82 707.437 905.82 709.897 899.82 712.29C897.37 713.29 894.91 714.22 892.45 715.17C887.82 716.94 883.18 718.68 878.5 720.35L877.92 720.57L876.92 720.92L875.67 721.38C863.463 725.74 851.093 729.767 838.56 733.46L838.34 733.52C829.6 736.067 820.803 738.423 811.95 740.59L810.74 740.89C797.74 744.03 784.53 746.73 771.24 748.89L768.18 749.38C758.46 750.907 748.673 752.153 738.82 753.12C683.43 758.47 627.38 754.12 572.33 746.66C461.17 731.58 351.48 703.31 251.44 659C232.24 650.5 213.413 641.4 194.96 631.7C194.81 631.62 194.68 631.54 194.53 631.47C183.483 625.663 172.587 619.613 161.84 613.32C158.69 611.5 155.56 609.64 152.45 607.77C148.623 605.463 144.813 603.13 141.02 600.77C136.02 597.65 131.02 594.45 126.02 591.18L123.68 589.62L122.78 589.01C121.51 588.16 120.26 587.31 119 586.45C72 554.45 30.09 515.67 10.29 467.14C-12.59 411.14 2.05 340.14 58.72 307.04C78.2 295.64 100.84 289.45 123.72 284.34L126.06 283.82C129.93 282.97 133.8 282.15 137.65 281.33C151.14 278.47 164.7 275.63 178.13 272.46C185.13 270.81 192.06 269.08 198.95 267.21L201.77 266.43C218.386 261.972 234.637 256.249 250.38 249.31H250.48C252.17 248.56 253.84 247.78 255.48 246.98C256.54 246.48 257.6 245.98 258.66 245.43C275.66 236.97 293.66 225.24 307.51 211.26C308.62 210.14 309.7 209 310.75 207.86C311.56 206.97 312.36 206.07 313.13 205.17C322.84 193.85 329.56 181.28 330.84 167.94C331.271 163.457 331.069 158.936 330.24 154.51C328.67 146.12 327.15 137.91 326.03 129.9C323.94 114.85 323.23 100.46 326.13 86.59C329.08 72.45 335.77 58.84 348.54 45.64C350.467 43.64 352.543 41.64 354.77 39.64C365.097 30.5796 376.783 23.1964 389.4 17.76C390.96 17.0933 392.53 16.4267 394.11 15.76C429.19 1.56 471.34 -1.4 510.72 0.560001C547.511 2.45338 584.069 7.53916 619.98 15.76C622.83 16.4 625.68 17.07 628.51 17.76C659.058 25.1601 689.117 34.4547 718.51 45.59C794.89 74.32 866.98 114.21 934.33 158.23C934.99 158.66 935.65 159.09 936.33 159.53C939.143 161.363 941.94 163.203 944.72 165.05C950.1 168.617 955.433 172.207 960.72 175.82L964.29 178.25C966.05 179.45 967.8 180.653 969.54 181.86L974.9 185.57C975.152 185.722 975.393 185.892 975.62 186.08L980.18 189.24C982.82 191.08 985.44 192.93 988.07 194.79L993.71 198.79C994.88 199.63 996.06 200.46 997.23 201.31L1003.23 205.69L1004.57 206.69C1004.85 206.89 1005.13 207.09 1005.4 207.31L1005.57 207.42C1021.83 219.35 1037.7 231.72 1052.57 244.83L1054.49 246.53L1054.69 246.71C1056.31 248.15 1057.93 249.61 1059.52 251.08C1078.94 268.76 1096.34 287.76 1110.56 308.76C1175.88 405.76 1156.49 540.07 1065.62 619.94Z" fill="#5A67D8"/>
<path opacity="0.1" d="M899.83 712.29C897.38 713.29 894.92 714.22 892.46 715.17C884.75 712.92 877.55 710.27 877.55 710.27C885.008 710.537 892.446 711.211 899.83 712.29V712.29Z" fill="black"/>
<path opacity="0.1" d="M974.23 628.36C974.23 628.36 992.94 632.76 994.04 635.75L974.23 628.36Z" fill="black"/>
<path opacity="0.1" d="M902.07 641.88C902.07 641.88 892.32 644.71 901.76 650.37C911.2 656.03 902.07 641.88 902.07 641.88Z" fill="black"/>
<path opacity="0.1" d="M893.43 267.25C893.43 267.25 900.34 270.4 901.91 274.8C903.48 279.2 893.43 267.25 893.43 267.25Z" fill="black"/>
<path opacity="0.1" d="M872.04 314.42C872.04 314.42 861.98 326.68 866.04 331.42C870.1 336.16 872.04 314.42 872.04 314.42Z" fill="black"/>
<path d="M786.53 296.36C786.745 296.36 786.92 296.185 786.92 295.97C786.92 295.755 786.745 295.58 786.53 295.58C786.315 295.58 786.14 295.755 786.14 295.97C786.14 296.185 786.315 296.36 786.53 296.36Z" fill="#E6E8EC"/>
<path d="M472.26 515.39C472.26 515.39 483.26 507.5 494.69 512.39C494.69 512.39 491.49 519.17 477.29 519.08L472.26 515.39Z" fill="#5A67D8"/>
<path d="M470.89 515.85C470.89 515.85 467.95 529.08 476.89 537.66C476.89 537.66 481.89 532.06 476.22 519.03L470.89 515.85Z" fill="#5A67D8"/>
<path d="M456.31 503.81C456.31 503.81 456.72 492.64 482.01 495.37C482.01 495.37 482.41 502.56 473.71 506.3C465.01 510.04 460.86 507.33 456.31 503.81Z" fill="#5A67D8"/>
<path d="M454.76 503.76C454.76 503.76 444.26 507.58 454.64 530.81C454.64 530.81 461.64 528.97 462.48 519.54C463.32 510.11 459.5 507.04 454.76 503.76Z" fill="#5A67D8"/>
<path d="M439.92 488.54C439.92 488.54 437.78 470.27 463.56 471.16C463.56 471.16 466.02 487.68 444.63 492.77L439.92 488.54Z" fill="#5A67D8"/>
<path d="M422.14 468.5C422.14 468.5 424.87 447.59 450.8 452.8C450.8 452.8 451.58 470.8 426.52 473.29L422.14 468.5Z" fill="#5A67D8"/>
<path d="M408.91 447.58C408.91 447.58 414.03 427.08 439.72 432.21C439.72 432.21 434.36 450.63 410.72 451.21L408.91 447.58Z" fill="#5A67D8"/>
<path d="M396.32 427.14C396.32 427.14 401.32 405.92 426.09 411.29C426.09 411.29 418.65 431.55 398.09 430.66L396.32 427.14Z" fill="#5A67D8"/>
<path d="M387.95 407.59C387.95 407.59 391.4 381.76 414.56 386.54C414.56 386.54 408.8 410.16 389.8 411.26L387.95 407.59Z" fill="#5A67D8"/>
<path d="M379.91 383.88C379.91 383.88 384.24 357.79 407.69 364.43C407.69 364.43 399.54 389.24 381.69 387.43L379.91 383.88Z" fill="#5A67D8"/>
<path d="M374.64 361.76C374.64 361.76 382.1 335.55 400.06 335.56C400.06 335.56 392.46 363.23 376.34 366.89L374.64 361.76Z" fill="#5A67D8"/>
<path d="M371.01 340.07C371.01 340.07 379.01 308.56 393.69 310.4C393.69 310.4 388.24 334.46 371.69 344.9L371.01 340.07Z" fill="#5A67D8"/>
<path d="M368.42 314.12C368.42 314.12 376.04 287.82 390.42 286.24C390.42 286.24 385.53 312.01 369.01 320.85L368.42 314.12Z" fill="#5A67D8"/>
<path d="M365.75 289.97C365.75 289.97 375.5 263.57 385 262.62C385 262.62 381.31 288.39 366.86 294.2L365.75 289.97Z" fill="#5A67D8"/>
<path d="M363.69 267.47C363.69 267.47 369.22 238.98 378.63 236.28C378.63 236.28 378.22 259.42 364.73 269.54L363.69 267.47Z" fill="#5A67D8"/>
<path d="M358.98 238.1C358.98 238.1 365.07 215.33 372.64 211.61C372.64 211.61 372.13 238.19 360.98 243.53L358.98 238.1Z" fill="#5A67D8"/>
<path d="M355.27 218.83L352.35 179.2C352.35 179.2 367.86 208.6 356.56 225.76L355.27 218.83Z" fill="#5A67D8"/>
<path d="M342.64 179.82C342.64 179.82 331.18 151.25 328.64 149.73C328.64 149.73 349.64 167.73 348.64 192L342.64 179.82Z" fill="#5A67D8"/>
<path d="M439.21 488.43C439.21 488.43 420.89 486.75 422.42 512.49C422.42 512.49 439 514.49 443.56 493.03L439.21 488.43Z" fill="#5A67D8"/>
<path d="M421.25 467.84C421.25 467.84 400.18 468.58 402.91 494.84C402.91 494.84 420.71 497.32 425.6 472.62L421.25 467.84Z" fill="#5A67D8"/>
<path d="M408.77 449.3C408.77 449.3 389.3 441.06 377.95 464.67C377.95 464.67 395.9 471.47 410.6 452.97L408.77 449.3Z" fill="#5A67D8"/>
<path d="M395.9 427.35C395.9 427.35 375.95 418.56 365.32 441.61C365.32 441.61 385.99 447.85 397.65 430.87L395.9 427.35Z" fill="#5A67D8"/>
<path d="M388.22 408.14C388.22 408.14 368.69 390.86 354.35 409.64C354.35 409.64 374.17 423.71 389.24 412.11L388.22 408.14Z" fill="#5A67D8"/>
<path d="M380.96 383.23C380.96 383.23 361.29 365.54 347.11 385.37C347.11 385.37 368.97 399.66 381.78 387.06L380.96 383.23Z" fill="#5A67D8"/>
<path d="M376.56 360.93C376.56 360.93 361.07 338.51 344.08 344.29C344.08 344.29 360.16 368.05 376.6 366.29L376.56 360.93Z" fill="#5A67D8"/>
<path d="M371.43 339.91C371.43 339.91 355.6 311.51 341.88 317.07C341.88 317.07 353.34 338.92 372 344.76L371.43 339.91Z" fill="#5A67D8"/>
<path d="M369.37 312.6C369.37 312.6 353.37 290.39 339.31 293.72C339.31 293.72 352.55 316.35 371.09 319.14L369.37 312.6Z" fill="#5A67D8"/>
<path d="M367.33 289.4C367.33 289.4 354.63 264.28 345.08 264.4C345.08 264.4 351.69 289.58 366.7 293.71L367.33 289.4Z" fill="#5A67D8"/>
<path d="M364.14 266.89C364.14 266.89 350.14 241.49 340.32 241.82C340.32 241.82 347.84 263.71 363.79 269.19L364.14 266.89Z" fill="#5A67D8"/>
<path d="M361.13 239.6C361.13 239.6 350.56 218.54 342.4 216.43C342.4 216.43 348.27 242.36 360.28 245.33L361.13 239.6Z" fill="#5A67D8"/>
<path d="M354.08 218.12L331.02 185.76C331.02 185.76 337.86 218.28 357.5 224.31L354.08 218.12Z" fill="#5A67D8"/>
<path d="M337.75 182.68C337.75 182.68 311.75 166.17 310.75 163.39C310.75 163.39 324.61 187.39 348.65 190.78L337.75 182.68Z" fill="#5A67D8"/>
<path d="M335.93 174.88C335.93 174.88 305.79 148.05 298.37 148.36C298.37 148.36 322.37 148.54 336.57 173.36L335.93 174.88Z" fill="#5A67D8"/>
<path d="M361.01 243.76L359.95 243.94C352.85 201.39 343.95 176.42 334.8 173.64L335.11 172.64C344.78 175.56 353.73 200.17 361.01 243.76Z" fill="#444053"/>
<path d="M372.95 345.7L371.36 345.9C370.87 341.9 370.46 337.84 370.12 333.78C367.24 298.44 363.63 266.03 359.59 241.78L360.47 240.6C364.47 264.89 368.84 298.26 371.73 333.6C372.05 337.69 372.47 341.76 372.95 345.7Z" fill="#444053"/>
<path d="M502.9 534.61C502.61 534.49 473.96 523 443.57 494.11C425.777 477.205 410.775 457.589 399.12 435.99C384.55 408.99 375.01 375.47 370.99 342.71L372.69 343.43C381.69 416.95 417.23 466.09 444.98 492.49C475.07 521.12 503.4 532.49 503.68 532.62L502.9 534.61Z" fill="#444053"/>
<g opacity="0.7">
<path opacity="0.7" d="M522.81 501.99C522.81 501.99 535.67 497.74 545.11 505.78C545.11 505.78 540.04 511.31 526.51 506.99L522.81 501.99Z" fill="#5A67D8"/>
<path opacity="0.7" d="M521.36 502.01C521.36 502.01 514.62 513.77 520.62 524.63C520.62 524.63 527.05 520.76 525.52 506.63L521.36 502.01Z" fill="#5A67D8"/>
<path opacity="0.7" d="M511.02 486.19C511.02 486.19 514.74 475.64 538.02 485.78C538.02 485.78 536.26 492.78 526.84 493.78C517.42 494.78 514.32 490.9 511.02 486.19Z" fill="#5A67D8"/>
<path opacity="0.7" d="M509.56 485.76C509.56 485.76 498.39 486.29 501.4 511.55C501.4 511.55 508.58 511.87 512.23 503.13C515.88 494.39 513.11 490.22 509.56 485.76Z" fill="#5A67D8"/>
<path opacity="0.7" d="M499.91 466.76C499.91 466.76 503.31 448.68 527.65 457.2C527.65 457.2 525.08 473.7 503.15 472.2L499.91 466.76Z" fill="#5A67D8"/>
<path opacity="0.7" d="M488.9 442.31C488.9 442.31 497.73 423.16 520.9 435.85C520.9 435.85 516.31 453.22 491.63 448.18L488.9 442.31Z" fill="#5A67D8"/>
<path opacity="0.7" d="M482.49 418.4C482.49 418.4 493.49 400.35 516.49 412.89C516.49 412.89 505.89 428.89 483.15 422.45L482.49 418.4Z" fill="#5A67D8"/>
<path opacity="0.7" d="M476.56 395.14C476.56 395.14 487.62 376.36 509.71 388.86C509.71 388.86 496.58 405.99 477.19 399.02L476.56 395.14Z" fill="#5A67D8"/>
<path opacity="0.7" d="M474.39 373.98C474.39 373.98 485.39 350.33 506.03 361.8C506.03 361.8 493.5 382.63 475.03 378.03L474.39 373.98Z" fill="#5A67D8"/>
<path opacity="0.7" d="M473.76 348.96C473.76 348.96 485.66 325.34 506.07 338.66C506.07 338.66 490.9 359.92 474.39 352.83L473.76 348.96Z" fill="#5A67D8"/>
<path opacity="0.7" d="M475.32 326.25C475.32 326.25 490.24 303.45 507.38 308.8C507.38 308.8 491.89 332.96 475.38 331.66L475.32 326.25Z" fill="#5A67D8"/>
<path opacity="0.7" d="M478.3 304.48C478.3 304.48 495.3 276.77 508.78 282.91C508.78 282.91 496.41 304.25 477.53 309.3L478.3 304.48Z" fill="#5A67D8"/>
<path opacity="0.7" d="M483.56 278.93C483.56 278.93 498.66 256.1 512.84 258.86C512.84 258.86 500.51 282.01 482.1 285.54L483.56 278.93Z" fill="#5A67D8"/>
<path opacity="0.7" d="M488.18 255.09C488.18 255.09 505.35 232.78 514.7 234.7C514.7 234.7 503.51 258.2 487.99 259.46L488.18 255.09Z" fill="#5A67D8"/>
<path opacity="0.7" d="M492.91 232.99C492.91 232.99 506.66 207.44 516.46 207.66C516.46 207.66 509.18 229.66 493.28 235.28L492.91 232.99Z" fill="#5A67D8"/>
<path opacity="0.7" d="M497.16 203.55C497.16 203.55 509.74 183.63 518.08 182.32C518.08 182.32 509.68 207.55 497.45 209.32L497.16 203.55Z" fill="#5A67D8"/>
<path opacity="0.7" d="M499.34 184.04L508.34 145.35C508.34 145.35 514.41 178.02 498.54 191.08L499.34 184.04Z" fill="#5A67D8"/>
<path opacity="0.7" d="M498.89 143.05C498.89 143.05 496.45 112.36 494.46 110.15C494.46 110.15 509.19 133.61 500.96 156.45L498.89 143.05Z" fill="#5A67D8"/>
<path opacity="0.7" d="M499.27 466.42C499.27 466.42 482.27 459.35 476.09 484.42C476.09 484.42 491.3 491.31 502.09 472.13L499.27 466.42Z" fill="#5A67D8"/>
<path opacity="0.7" d="M488.25 441.41C488.25 441.41 467.92 435.85 462.7 461.77C462.7 461.77 478.95 469.44 490.98 447.31L488.25 441.41Z" fill="#5A67D8"/>
<path opacity="0.7" d="M481.85 420C481.85 420 465.72 406.34 447.85 425.51C447.85 425.51 462.96 437.34 482.5 424.05L481.85 420Z" fill="#5A67D8"/>
<path opacity="0.7" d="M476.09 395.22C476.09 395.22 459.67 380.89 442.66 399.76C442.66 399.76 460.53 411.86 476.72 399.11L476.09 395.22Z" fill="#5A67D8"/>
<path opacity="0.7" d="M474.48 374.59C474.48 374.59 460.97 352.28 441.7 365.94C441.7 365.94 456.43 385.28 474.27 378.68L474.48 374.59Z" fill="#5A67D8"/>
<path opacity="0.7" d="M474.96 348.64C474.96 348.64 461.44 325.91 441.96 340.64C441.96 340.64 458.58 360.79 474.56 352.57L474.96 348.64Z" fill="#5A67D8"/>
<path opacity="0.7" d="M477.38 326.04C477.38 326.04 469.27 300.04 451.32 300.49C451.32 300.49 459.61 327.97 475.82 331.22L477.38 326.04Z" fill="#5A67D8"/>
<path opacity="0.7" d="M478.75 304.45C478.75 304.45 472.08 272.63 457.33 273.86C457.33 273.86 461.77 298.13 477.85 309.25L478.75 304.45Z" fill="#5A67D8"/>
<path opacity="0.7" d="M484.91 277.76C484.91 277.76 476.24 251.76 461.82 250.76C461.82 250.76 467.74 276.32 484.6 284.49L484.91 277.76Z" fill="#5A67D8"/>
<path opacity="0.7" d="M489.86 255.01C489.86 255.01 485.21 227.25 476.05 224.54C476.05 224.54 474.87 250.54 487.98 258.96L489.86 255.01Z" fill="#5A67D8"/>
<path opacity="0.7" d="M493.56 232.57C493.56 232.57 487.73 204.15 478.28 201.57C478.28 201.57 478.94 224.7 492.55 234.68L493.56 232.57Z" fill="#5A67D8"/>
<path opacity="0.7" d="M498.76 205.63C498.76 205.63 494.93 182.38 487.76 177.92C487.76 177.92 485.65 204.43 496.23 210.84L498.76 205.63Z" fill="#5A67D8"/>
<path opacity="0.7" d="M498.42 183.02L486.03 145.27C486.03 145.27 482.88 178.36 499.84 189.96L498.42 183.02Z" fill="#5A67D8"/>
<path opacity="0.7" d="M493.37 144.33C493.37 144.33 473.46 120.83 473.37 117.87C473.37 117.87 479.46 144.87 501.37 155.29L493.37 144.33Z" fill="#5A67D8"/>
<path opacity="0.7" d="M493.95 136.34C493.95 136.34 473.16 101.75 465.95 99.84C465.95 99.84 488.83 107.16 494.95 135.08L493.95 136.34Z" fill="#5A67D8"/>
<path opacity="0.7" d="M497.4 209.56L496.34 209.41C502.22 166.68 501.12 140.18 493.24 134.81L493.85 133.93C502.2 139.62 503.43 165.76 497.4 209.56Z" fill="#444053"/>
<path opacity="0.7" d="M478.48 310.44L476.9 310.15C477.62 306.2 478.43 302.15 479.33 298.21C487.09 263.62 493.33 231.6 496.64 207.21L497.83 206.35C494.47 230.74 488.67 263.89 480.89 298.52C480.01 302.52 479.19 306.51 478.48 310.44Z" fill="#444053"/>
<path opacity="0.7" d="M546.34 529.45C546.1 529.26 522.16 509.75 501.75 473.14C489.771 451.71 481.269 428.515 476.56 404.42C470.68 374.3 471.56 339.42 477.45 307L478.86 308.19C465.61 381.07 484.86 438.55 503.53 472.01C523.74 508.29 547.4 527.59 547.64 527.78L546.34 529.45Z" fill="#444053"/>
</g>
<g opacity="0.1">
<path opacity="0.1" d="M144.16 348.63C144.192 348.234 144.263 347.842 144.37 347.46C145.98 350 147.99 352.46 148.18 355.46C148.226 356.148 148.169 356.839 148.01 357.51C146.22 354.63 143.91 351.94 144.16 348.63Z" fill="black"/>
<path opacity="0.1" d="M164.31 369.57C172.58 366.25 179.58 360.22 187.24 355.57C192.94 352.1 199.04 349.35 204.51 345.49C210.17 341.49 215.07 336.36 220.92 332.7C226.77 329.04 234.12 326.97 240.38 329.79C245.09 331.92 248.38 336.43 252.63 339.48C256.88 342.53 263.35 343.72 266.58 339.53C268.03 337.66 268.45 335.18 268.9 332.82C270.34 325.26 272.9 317.26 279.02 313C285.64 308.38 299.65 308.9 302.19 299.15C302.613 297.42 302.725 295.629 302.52 293.86C304.15 298.19 304.98 302.55 304 306.35C301.45 316.1 287.44 315.58 280.82 320.2C274.74 324.46 272.14 332.46 270.7 340.02C270.25 342.38 269.83 344.87 268.39 346.73C265.15 350.92 258.65 349.73 254.39 346.68C250.13 343.63 246.85 339.12 242.14 336.99C235.88 334.17 228.53 336.24 222.68 339.9C216.83 343.56 211.93 348.7 206.27 352.69C200.8 356.56 194.7 359.3 189 362.77C181.34 367.45 174.34 373.47 166.07 376.77C157.8 380.07 147.47 380.06 141.14 373.54C142.776 372.654 144.329 371.623 145.78 370.46C151.56 372.57 158.46 371.91 164.31 369.57Z" fill="black"/>
</g>
<path d="M815.56 271.4L774.56 230.17C772.55 228.115 770.153 226.478 767.507 225.354C764.861 224.23 762.018 223.641 759.144 223.622C756.269 223.602 753.419 224.152 750.758 225.24C748.097 226.328 745.678 227.932 743.64 229.96L486.18 485.24L377.32 375.53C373.278 371.43 367.773 369.104 362.016 369.062C356.258 369.021 350.72 371.268 346.62 375.31L305.18 416.31C301.085 420.4 298.766 425.939 298.727 431.727C298.688 437.515 300.931 443.085 304.97 447.23L470.29 613.85C474.379 617.947 479.917 620.267 485.705 620.308C491.493 620.349 497.063 618.108 501.21 614.07L815.33 302.31C817.385 300.301 819.022 297.906 820.147 295.262C821.272 292.617 821.862 289.776 821.883 286.903C821.904 284.029 821.357 281.18 820.271 278.519C819.186 275.859 817.585 273.439 815.56 271.4Z" fill="#3ACC6C"/>
<g opacity="0.5">
<path opacity="0.5" d="M753.78 602.01C753.78 602.01 723.2 600.17 726.78 621.6C726.596 622.686 726.76 623.803 727.249 624.791C727.737 625.778 728.525 626.587 729.5 627.1C729.5 627.1 729.5 625.51 732.63 626.05C733.729 626.238 734.848 626.291 735.96 626.21C737.46 626.112 738.886 625.526 740.02 624.54V624.54C740.02 624.54 748.61 620.99 751.96 606.93C751.96 606.93 754.43 603.87 754.33 603.08L749.17 605.29C749.17 605.29 750.94 609.01 749.55 612.1C749.55 612.1 749.38 605.42 748.39 605.58C748.19 605.58 745.71 606.87 745.71 606.87C745.71 606.87 748.71 613.35 746.45 618.07C746.45 618.07 747.32 610.07 744.76 607.34L741.13 609.46C741.13 609.46 744.67 616.16 742.27 621.62C742.27 621.62 742.89 613.24 740.36 609.98L737.07 612.54C737.07 612.54 740.4 619.14 738.37 623.68C738.37 623.68 738.11 613.92 736.37 613.18C736.37 613.18 733.49 615.72 733.05 616.77C733.05 616.77 735.33 621.56 733.92 624.09C733.92 624.09 733.05 617.58 732.34 617.56C732.34 617.56 729.47 621.86 729.17 624.81C729.308 622.081 730.16 619.437 731.64 617.14C729.986 617.457 728.461 618.249 727.25 619.42C727.25 619.42 727.69 616.42 732.35 616.1C732.35 616.1 734.72 612.84 735.35 612.64C735.35 612.64 730.72 612.25 727.91 613.5C727.91 613.5 730.38 610.62 736.19 611.93L739.44 609.28C739.44 609.28 733.35 608.44 730.76 609.36C730.76 609.36 733.76 606.82 740.32 608.67L743.86 606.56C743.86 606.56 738.66 605.44 735.56 605.84C735.56 605.84 738.83 604.08 744.9 605.99L747.43 604.85C747.43 604.85 743.62 604.1 742.5 603.99C741.38 603.88 741.33 603.56 741.33 603.56C743.741 603.161 746.216 603.438 748.48 604.36C748.48 604.36 753.87 602.35 753.78 602.01Z" fill="#5A67D8"/>
</g>
<g opacity="0.5">
<path opacity="0.5" d="M698.91 452.35C698.91 452.35 683.38 478.76 704.12 485.28C705.005 485.938 706.075 486.299 707.177 486.314C708.279 486.328 709.358 485.994 710.26 485.36C710.26 485.36 708.87 484.59 710.74 482.09C711.404 481.195 711.961 480.225 712.4 479.2C712.984 477.815 713.106 476.28 712.75 474.82V474.82C712.75 474.82 713.48 465.55 702.48 456.19C702.48 456.19 700.87 452.59 700.13 452.32L699.75 457.92C699.75 457.92 703.86 458.04 705.99 460.68C705.99 460.68 699.99 457.8 699.65 458.75C699.59 458.95 699.58 461.75 699.58 461.75C699.58 461.75 706.74 461.99 709.9 466.17C709.9 466.17 703.18 461.77 699.57 462.81L699.81 467.01C699.81 467.01 707.39 466.89 711.17 471.51C711.17 471.51 703.98 467.15 699.93 467.92L700.72 472.02C700.72 472.02 708.12 472.02 711.23 475.91C711.23 475.91 702.42 471.72 700.97 472.91C700.97 472.91 701.97 476.63 702.65 477.5C702.65 477.5 707.96 477.64 709.57 480.05C709.57 480.05 703.38 477.87 703.03 478.49C703.03 478.49 705.57 483 708.03 484.61C705.662 483.244 703.694 481.283 702.32 478.92C701.826 480.55 701.826 482.29 702.32 483.92C702.32 483.92 699.81 482.14 701.69 477.92C701.69 477.92 699.85 474.33 699.96 473.67C699.96 473.67 697.52 477.62 697.35 480.67C697.35 480.67 695.91 477.16 699.71 472.57L698.83 468.47C698.83 468.47 695.32 473.53 694.96 476.25C694.96 476.25 694.05 472.44 698.69 467.42L698.41 463.31C698.41 463.31 695.05 467.43 694.01 470.37C694.01 470.37 693.92 466.66 698.37 462.12L698.51 459.35C698.51 459.35 696.11 462.41 695.51 463.35C694.91 464.29 694.6 464.2 694.6 464.2C695.334 461.872 696.702 459.795 698.55 458.2C698.55 458.2 699.25 452.42 698.91 452.35Z" fill="#5A67D8"/>
</g>
<g opacity="0.5">
<path opacity="0.5" d="M601.78 241.64C601.78 241.64 586.26 268.06 606.99 274.57C607.874 275.23 608.944 275.594 610.047 275.608C611.15 275.623 612.229 275.287 613.13 274.65C613.13 274.65 611.74 273.88 613.62 271.38C614.281 270.484 614.835 269.515 615.27 268.49C615.859 267.107 615.982 265.569 615.62 264.11V264.11C615.62 264.11 616.36 254.84 605.35 245.48C605.35 245.48 603.74 241.89 603 241.62L602.62 247.21C602.62 247.21 606.74 247.33 608.86 249.97C608.86 249.97 602.86 247.09 602.53 248.04C602.46 248.24 602.46 251.04 602.46 251.04C602.46 251.04 609.61 251.28 612.77 255.46C612.77 255.46 606.05 251.06 602.44 252.1L602.69 256.3C602.69 256.3 610.26 256.18 614.04 260.8C614.04 260.8 606.85 256.45 602.8 257.21L603.59 261.31C603.59 261.31 610.99 261.31 614.11 265.21C614.11 265.21 605.29 261.01 603.84 262.21C603.84 262.21 604.84 265.92 605.53 266.79C605.53 266.79 610.83 266.93 612.44 269.34C612.44 269.34 606.25 267.16 605.91 267.78C605.91 267.78 608.44 272.3 610.91 273.9C608.54 272.538 606.568 270.58 605.19 268.22C604.712 269.832 604.712 271.548 605.19 273.16C605.19 273.16 602.68 271.38 604.56 267.11C604.56 267.11 602.72 263.52 602.83 262.86C602.83 262.86 600.39 266.81 600.22 269.86C600.22 269.86 598.78 266.35 602.59 261.76L601.7 257.66C601.7 257.66 598.19 262.72 597.84 265.44C597.84 265.44 596.92 261.63 601.56 256.61L601.28 252.5C601.28 252.5 597.92 256.62 596.88 259.56C596.88 259.56 596.79 255.85 601.24 251.32L601.38 248.54C601.38 248.54 598.98 251.6 598.38 252.54C597.78 253.48 597.47 253.39 597.47 253.39C598.222 251.058 599.606 248.981 601.47 247.39C601.47 247.39 602.12 241.76 601.78 241.64Z" fill="#5A67D8"/>
</g>
<g opacity="0.5">
<path opacity="0.5" d="M267.42 41.55C267.42 41.55 209.62 83.55 247.88 116.82C247.88 116.82 252.21 124.7 260.94 122.71C260.94 122.71 258.68 119.77 265.03 116.17C267.281 114.877 269.369 113.319 271.25 111.53C273.794 109.134 275.49 105.975 276.08 102.53V102.53C276.08 102.53 286.3 83.39 271.49 53.13C271.49 53.13 271.4 43.94 270.05 42.67L264.05 54.29C264.05 54.29 272.74 58.38 274.83 66.01C274.83 66.01 264.62 54.22 263.07 56.01C262.76 56.36 260.15 62.31 260.15 62.31C260.15 62.31 275.24 69.49 278.1 81.37C278.1 81.37 267.82 65.69 259.1 64.55L255.71 73.76C255.71 73.76 272.02 80.57 275.8 93.97C275.8 93.97 264.48 77.97 255.1 75.82L252.98 85.33C252.98 85.33 268.76 92.28 271.83 103.45C271.83 103.45 256.83 86.27 252.64 87.54C252.64 87.54 251.22 96.38 251.97 98.91C251.97 98.91 263.19 104.16 264.39 110.81C264.39 110.81 253.18 100.39 251.86 101.39C251.86 101.39 253.08 113.39 256.92 119.16C256.92 119.16 250.63 111.07 249.99 101.68C249.99 101.68 245.7 106.68 245.46 112.29C245.46 112.29 241.74 106.14 249.73 98.76C249.73 98.76 249.16 89.36 250.01 88.06C250.01 88.06 241.09 94.23 237.88 100.63C237.88 100.63 238.07 91.79 250.48 85.52L252.4 75.93C252.4 75.93 240.19 83.46 236.9 88.93C236.9 88.93 238.49 79.93 253.08 73.51L256.32 64.46C256.32 64.46 245.32 70.15 240.32 75.46C240.32 75.46 243.59 67.46 257.32 61.89L260.19 56.09C260.19 56.09 252.19 60.39 250.04 61.83C247.89 63.27 247.29 62.83 247.29 62.83C251.036 58.5289 255.904 55.354 261.35 53.66C261.35 53.66 268.09 42.02 267.42 41.55Z" fill="#5A67D8"/>
</g>
<g opacity="0.5">
<path opacity="0.5" d="M211.27 180.14C211.27 180.14 136.5 148.7 126.7 205.39C126.7 205.39 121.59 214.23 128.7 221.53C128.7 221.53 130.23 217.61 137.46 221.66C140.039 223.086 142.778 224.201 145.62 224.98C149.458 226.039 153.536 225.821 157.24 224.36V224.36C157.24 224.36 181.82 223.03 202.51 190.86C202.51 190.86 211.37 185.38 211.82 183.32L196.99 184.32C196.99 184.32 198.13 195.17 191.99 201.68C191.99 201.68 197.44 184.84 194.82 184.37C194.29 184.27 186.99 185.23 186.99 185.23C186.99 185.23 188.88 204.1 178.99 213.86C178.99 213.86 188.17 194.67 184.17 185.57L173.24 187.68C173.24 187.68 176.24 207.53 165.42 219.07C165.42 219.07 174.31 198.67 170.88 188.31L160.4 191.83C160.4 191.83 162.93 211.24 153.88 220.83C153.88 220.83 161.78 196.22 158.06 192.83C158.06 192.83 148.64 196.65 146.62 198.83C146.62 198.83 148.12 212.83 142.36 217.88C142.36 217.88 145.9 200.88 144.15 200.18C144.15 200.18 133.2 208.42 129.86 215.53C129.86 215.53 134.03 204.67 142.77 198.53C142.77 198.53 135.43 197.28 129.77 200.36C129.77 200.36 133.56 193.15 145.42 196.57C145.42 196.57 154.21 190.48 155.97 190.57C155.97 190.57 144.75 185.57 136.64 186.19C136.64 186.19 145.33 181.19 158.71 189.54L169.14 185.76C169.14 185.76 154.65 178.33 147.38 178.36C147.38 178.36 157.04 174.62 171.86 185.02L182.56 182.81C182.56 182.81 170.56 175.46 162.46 173.76C162.46 173.76 172.17 172.22 185.64 182.31L192.96 181.7C192.96 181.7 184.1 176.48 181.42 175.21C178.74 173.94 178.86 173.12 178.86 173.12C185.239 174.227 191.184 177.087 196.03 181.38C196.03 181.38 211.2 181.07 211.27 180.14Z" fill="#5A67D8"/>
</g>
<g opacity="0.5">
<path opacity="0.5" d="M166.5 100.76C166.5 100.76 139.99 39.49 101.88 67.59C101.88 67.59 93.81 69.93 93.88 78.29C93.88 78.29 97.02 76.83 99 83.36C99.7382 85.673 100.745 87.8915 102 89.97C103.675 92.788 106.224 94.9824 109.26 96.22C109.26 96.22 124.62 109.44 155.26 102.11C155.26 102.11 163.65 103.9 165.09 102.94L155.72 95.07C155.72 95.07 150.22 102.17 142.84 102.51C142.84 102.51 155.67 95.61 154.38 93.84C154.12 93.48 149.24 89.9 149.24 89.9C149.24 89.9 139.61 102.18 128.24 102.37C128.24 102.37 144.63 96.19 147.43 88.52L139.73 83.52C139.73 83.52 130.06 97.05 117.07 97.76C117.07 97.76 133.97 90.71 137.84 82.59L129.61 78.76C129.61 78.76 120.05 91.76 109.24 92.25C109.24 92.25 127.95 82.13 127.66 78C127.66 78 119.89 74.9 117.43 75.08C117.43 75.08 110.36 84.23 104.05 83.97C104.05 83.97 115.84 75.88 115.19 74.47C115.19 74.47 103.99 73.13 97.96 75.47C97.96 75.47 106.62 71.39 115.31 72.73C115.31 72.73 111.66 67.8 106.56 66.43C106.56 66.43 112.93 64.3 118.02 73.08C118.02 73.08 126.71 74.48 127.72 75.52C127.72 75.52 123.92 66.13 118.72 61.9C118.72 61.9 126.72 63.9 129.93 76.47L138.28 80.18C138.28 80.18 133.91 67.5 129.57 63.39C129.57 63.39 137.44 66.67 140.32 81.29L147.91 86.08C147.91 86.08 144.97 74.88 141.14 69.25C141.14 69.25 147.78 73.87 150.04 87.54L154.74 91.34C154.74 91.34 152.44 83.2 151.57 80.92C150.7 78.64 151.25 78.22 151.25 78.22C154.404 82.5105 156.305 87.5926 156.74 92.9C156.74 92.9 165.94 101.29 166.5 100.76Z" fill="#5A67D8"/>
</g>
<g opacity="0.5">
<path opacity="0.5" d="M683.18 132.64C683.18 132.64 676.93 102.64 657.18 111.75C656.081 111.855 655.044 112.306 654.218 113.037C653.392 113.768 652.818 114.742 652.58 115.82C652.58 115.82 654.13 115.45 654.42 118.57C654.53 119.677 654.768 120.768 655.13 121.82C655.629 123.239 656.573 124.459 657.82 125.3C657.82 125.3 663.5 132.66 677.93 132.2C677.93 132.2 681.54 133.78 682.28 133.48L678.79 129.08C678.79 129.08 675.66 131.76 672.32 131.23C672.32 131.23 678.72 129.32 678.32 128.4C678.23 128.21 676.37 126.15 676.37 126.15C676.37 126.15 670.91 130.78 665.76 129.81C665.76 129.81 673.69 128.55 675.67 125.36L672.67 122.41C672.67 122.41 667.13 127.59 661.23 126.7C661.23 126.7 669.48 125.1 671.97 121.81L668.63 119.31C668.63 119.31 663.13 124.25 658.22 123.48C658.22 123.48 667.57 120.66 667.82 118.78C667.82 118.78 664.62 116.67 663.49 116.52C663.49 116.52 659.49 119.98 656.66 119.28C656.66 119.28 662.66 116.74 662.55 116.04C662.55 116.04 657.64 114.4 654.71 114.89C657.38 114.311 660.154 114.439 662.76 115.26C662.025 113.744 660.86 112.478 659.41 111.62C659.41 111.62 662.47 111.25 663.95 115.62C663.95 115.62 667.72 117.05 668.08 117.62C668.08 117.62 667.24 113.05 665.3 110.62C665.3 110.62 668.72 112.25 668.99 118.21L672.4 120.65C672.4 120.65 671.61 114.55 670.04 112.29C670.04 112.29 673.27 114.5 673.21 121.29L676.21 124.15C676.21 124.15 675.93 118.84 674.73 115.96C674.73 115.96 677.28 118.65 677.03 124.96L678.79 127.11C678.79 127.11 678.52 123.24 678.34 122.11C678.16 120.98 678.44 120.86 678.44 120.86C679.462 123.085 679.846 125.55 679.55 127.98C679.55 127.98 682.88 132.82 683.18 132.64Z" fill="#5A67D8"/>
</g>
<g opacity="0.5">
<path opacity="0.5" d="M575.56 688.76C575.56 688.76 569.32 658.76 549.56 667.87C548.46 667.975 547.422 668.425 546.594 669.156C545.765 669.887 545.19 670.862 544.95 671.94C544.95 671.94 546.5 671.57 546.79 674.69C546.898 675.798 547.14 676.89 547.51 677.94C548.007 679.357 548.946 680.578 550.19 681.42V681.42C550.19 681.42 555.87 688.78 570.31 688.32C570.31 688.32 573.92 689.9 574.65 689.6L571.17 685.2C571.17 685.2 568.04 687.88 564.69 687.35C564.69 687.35 571.09 685.44 570.69 684.52C570.61 684.33 568.74 682.27 568.74 682.27C568.74 682.27 563.28 686.9 558.13 685.93C558.13 685.93 566.07 684.67 568.04 681.48L565.04 678.48C565.04 678.48 559.56 683.68 553.64 682.76C553.64 682.76 561.89 681.16 564.38 677.87L561.04 675.37C561.04 675.37 555.55 680.31 550.64 679.54C550.64 679.54 559.99 676.73 560.24 674.84C560.24 674.84 557.03 672.73 555.91 672.58C555.91 672.58 551.91 676.04 549.07 675.34C549.07 675.34 555.07 672.8 554.96 672.1C554.96 672.1 550.05 670.46 547.12 670.95C549.793 670.371 552.571 670.498 555.18 671.32C554.441 669.806 553.277 668.541 551.83 667.68C551.83 667.68 554.88 667.31 556.36 671.68C556.36 671.68 560.14 673.11 560.5 673.68C560.5 673.68 559.66 669.11 557.72 666.68C557.72 666.68 561.14 668.31 561.4 674.27L564.82 676.71C564.82 676.71 564.02 670.61 562.45 668.35C562.45 668.35 565.69 670.56 565.63 677.35L568.63 680.21C568.63 680.21 568.35 674.9 567.14 672.02C567.14 672.02 569.7 674.71 569.45 681.02L571.21 683.17C571.21 683.17 570.93 679.3 570.75 678.17C570.57 677.04 570.85 676.93 570.85 676.93C571.873 679.151 572.257 681.613 571.96 684.04C571.96 684.04 575.28 688.91 575.56 688.76Z" fill="#5A67D8"/>
</g>
</g>
<defs>
<clipPath id="clip0">
<rect width="1149.12" height="755.51" fill="white"/>
</clipPath>
</defs>
</svg>
